<svg width="1024" height="1024" xmlns="http://www.w3.org/2000/svg">
  <defs>
    <!-- Gradient pour le cœur - Orange -->
    <linearGradient id="heartOrange" x1="0%" y1="0%" x2="100%" y2="100%">
      <stop offset="0%" style="stop-color:#D2691E;stop-opacity:1" />
      <stop offset="100%" style="stop-color:#CD853F;stop-opacity:1" />
    </linearGradient>
    
    <!-- Gradient pour le cœur - Rouge -->
    <linearGradient id="heartRed" x1="0%" y1="0%" x2="100%" y2="100%">
      <stop offset="0%" style="stop-color:#A0282C;stop-opacity:1" />
      <stop offset="100%" style="stop-color:#8B1538;stop-opacity:1" />
    </linearGradient>
    
    <!-- Gradient pour le cœur - Vert -->
    <linearGradient id="heartGreen" x1="0%" y1="0%" x2="100%" y2="100%">
      <stop offset="0%" style="stop-color:#2F5233;stop-opacity:1" />
      <stop offset="100%" style="stop-color:#1B3B1E;stop-opacity:1" />
    </linearGradient>
    
    <!-- Ombre pour le texte -->
    <filter id="textShadow">
      <feDropShadow dx="2" dy="2" stdDeviation="3" flood-color="#000000" flood-opacity="0.3"/>
    </filter>
  </defs>
  
  <!-- Fond transparent -->
  <rect width="1024" height="1024" fill="transparent"/>
  
  <!-- Cœur AMORA - Design professionnel -->
  <g transform="translate(512, 307.2)">
    <!-- Forme du cœur optimisée -->
    <path d="M 0,60 
             C -30,20 -70,20 -70,60 
             C -70,100 -30,140 0,180 
             C 30,140 70,100 70,60 
             C 70,20 30,20 0,60 Z" 
          fill="url(#heartRed)" 
          stroke="none"/>
    
    <!-- Partie orange (gauche) -->
    <path d="M 0,60 
             C -30,20 -70,20 -70,60 
             C -70,100 -30,140 0,180 
             L 0,60 Z" 
          fill="url(#heartOrange)" 
          opacity="0.8"/>
    
    <!-- Partie verte (droite) -->
    <path d="M 0,60 
             C 30,20 70,20 70,60 
             C 70,100 30,140 0,180 
             L 0,60 Z" 
          fill="url(#heartGreen)" 
          opacity="0.6"/>
  </g>
  
  <!-- Texte AMORA -->
  <text x="512" y="819.2" 
        font-family="Georgia, Times, serif" 
        font-size="102.4" 
        font-weight="bold" 
        text-anchor="middle" 
        fill="#8B1538"
        filter="url(#textShadow)">AMORA</text>
</svg>